<?xml version="1.0" encoding="UTF-8" standalone="no"?>
<svg
   xmlns:osb="http://www.openswatchbook.org/uri/2009/osb"
   xmlns:dc="http://purl.org/dc/elements/1.1/"
   xmlns:cc="http://creativecommons.org/ns#"
   xmlns:rdf="http://www.w3.org/1999/02/22-rdf-syntax-ns#"
   xmlns:svg="http://www.w3.org/2000/svg"
   xmlns="http://www.w3.org/2000/svg"
   xmlns:sodipodi="http://sodipodi.sourceforge.net/DTD/sodipodi-0.dtd"
   xmlns:inkscape="http://www.inkscape.org/namespaces/inkscape"
   version="1.1"
   id="Layer_1"
   x="0px"
   y="0px"
   viewBox="0 0 330.002 330.002"
   style="enable-background:new 0 0 330.002 330.002;"
   xml:space="preserve"
   sodipodi:docname="left-arrow-svgrepo-com-white.svg"
   inkscape:version="1.0.2-2 (e86c870879, 2021-01-15)"><metadata
   id="metadata38"><rdf:RDF><cc:Work
       rdf:about=""><dc:format>image/svg+xml</dc:format><dc:type
         rdf:resource="http://purl.org/dc/dcmitype/StillImage" /><dc:title></dc:title></cc:Work></rdf:RDF></metadata><defs
   id="defs36"><linearGradient
     id="linearGradient2899"
     osb:paint="solid"><stop
       style="stop-color:#ffffff;stop-opacity:1;"
       offset="0"
       id="stop2897" /></linearGradient></defs><sodipodi:namedview
   pagecolor="#ffffff"
   bordercolor="#666666"
   borderopacity="1"
   objecttolerance="10"
   gridtolerance="10"
   guidetolerance="10"
   inkscape:pageopacity="0"
   inkscape:pageshadow="2"
   inkscape:window-width="1920"
   inkscape:window-height="1005"
   id="namedview34"
   showgrid="false"
   inkscape:zoom="2.5302876"
   inkscape:cx="165.00101"
   inkscape:cy="132.98884"
   inkscape:window-x="-9"
   inkscape:window-y="-9"
   inkscape:window-maximized="1"
   inkscape:current-layer="Layer_1" />
<path
   id="XMLID_227_"
   d="M233.25,306.001L127.5,165.005L233.25,24.001c4.971-6.628,3.627-16.03-3-21c-6.627-4.971-16.03-3.626-21,3  L96.75,156.005c-4,5.333-4,12.667,0,18l112.5,149.996c2.947,3.93,7.451,6.001,12.012,6.001c3.131,0,6.29-0.978,8.988-3.001  C236.878,322.03,238.221,312.628,233.25,306.001z"
   style="opacity:1" />
<g
   id="g3">
</g>
<g
   id="g5">
</g>
<g
   id="g7">
</g>
<g
   id="g9">
</g>
<g
   id="g11">
</g>
<g
   id="g13">
</g>
<g
   id="g15">
</g>
<g
   id="g17">
</g>
<g
   id="g19">
</g>
<g
   id="g21">
</g>
<g
   id="g23">
</g>
<g
   id="g25">
</g>
<g
   id="g27">
</g>
<g
   id="g29">
</g>
<g
   id="g31">
</g>
<path
   style="opacity:1;stroke-width:0.395212"
   d="m 216.77378,329.01452 c -1.3042,-0.43615 -3.21909,-1.41894 -4.25531,-2.18398 -1.45366,-1.07324 -15.00306,-18.88345 -59.31527,-77.96787 -38.7914,-51.72317 -57.676913,-77.21392 -58.188188,-78.53963 -1.039374,-2.69504 -1.039374,-7.94903 0,-10.64407 0.511275,-1.32571 19.396788,-26.81646 58.188188,-78.539624 44.267,-59.024135 57.86309,-76.8960864 59.31527,-77.9694304 7.40944,-5.4765087 17.98304,-2.78163689 22.11608,5.6366837 0.99092,2.0183277 1.10925,2.6809177 1.10932,6.2114567 8e-5,3.492968 -0.12054,4.185711 -1.03818,5.962747 -0.57104,1.105845 -25.00252,33.962782 -54.29217,73.015418 l -53.25391,71.004789 53.25391,71.00478 c 29.28965,39.05264 53.72113,71.90958 54.29217,73.01542 0.91764,1.77704 1.03826,2.46978 1.03818,5.96275 -7e-5,3.53054 -0.1184,4.19313 -1.10932,6.21145 -3.29149,6.70422 -11.04482,10.09847 -17.86077,7.81911 z"
   id="path879" /><path
   style="opacity:1;stroke-width:0.395212"
   d="m 216.77378,329.01452 c -1.3042,-0.43615 -3.21909,-1.41894 -4.25531,-2.18398 -1.45366,-1.07324 -15.00306,-18.88345 -59.31527,-77.96787 -38.7914,-51.72317 -57.676913,-77.21392 -58.188188,-78.53963 -1.039374,-2.69504 -1.039374,-7.94903 0,-10.64407 0.511275,-1.32571 19.396788,-26.81646 58.188188,-78.539624 44.267,-59.024135 57.86309,-76.8960864 59.31527,-77.9694304 7.40944,-5.4765087 17.98304,-2.78163689 22.11608,5.6366837 0.99092,2.0183277 1.10925,2.6809177 1.10932,6.2114567 8e-5,3.508374 -0.11834,4.181548 -1.05461,5.995471 -0.58008,1.123844 -24.98717,33.985597 -54.23797,73.026119 l -53.18326,70.982774 53.16851,70.93198 c 29.24268,39.01259 53.64976,71.8647 54.23796,73.00471 0.95301,1.84704 1.06945,2.50305 1.06937,6.02485 -7e-5,3.53054 -0.1184,4.19313 -1.10932,6.21145 -3.29149,6.70422 -11.04482,10.09847 -17.86077,7.81911 z"
   id="path881" /><path
   style="opacity:1;stroke-width:0.395212"
   d="m 216.77378,329.01452 c -1.3042,-0.43615 -3.21909,-1.41894 -4.25531,-2.18398 -1.45366,-1.07324 -15.00306,-18.88345 -59.31527,-77.96787 -38.7914,-51.72317 -57.676913,-77.21392 -58.188188,-78.53963 -1.039374,-2.69504 -1.039374,-7.94903 0,-10.64407 C 95.950062,157.25444 209.76637,5.3295922 212.07297,3.4270893 c 2.48951,-2.0533659 5.36693,-2.99103404 9.24575,-3.01292144 2.97825,-0.0168056 3.66077,0.12385604 6.01701,1.24005204 3.18779,1.510118 5.77119,4.0416536 7.29859,7.1520601 0.99142,2.018919 1.10963,2.680702 1.10963,6.211776 0,3.519365 -0.11681,4.178514 -1.06684,6.019657 -0.58676,1.137145 -24.99005,33.994205 -54.22952,73.015683 l -53.16267,70.948144 53.15962,70.94153 c 29.23779,39.01784 53.64107,71.87466 54.22952,73.01515 0.95351,1.84805 1.06989,2.50354 1.06981,6.02574 -7e-5,3.53054 -0.1184,4.19313 -1.10932,6.21145 -3.29149,6.70422 -11.04482,10.09847 -17.86077,7.81911 z"
   id="path883" /><path
   style="opacity:1;stroke-width:0.395212"
   d="m 216.77378,329.01452 c -1.3042,-0.43615 -3.21909,-1.41894 -4.25531,-2.18398 -1.45366,-1.07324 -15.00306,-18.88345 -59.31527,-77.96787 -38.7914,-51.72317 -57.676913,-77.21392 -58.188188,-78.53963 -1.039374,-2.69504 -1.039374,-7.94903 0,-10.64407 C 95.950062,157.25444 209.76637,5.3295922 212.07297,3.4270893 c 2.48951,-2.0533659 5.36693,-2.99103404 9.24575,-3.01292144 2.97825,-0.0168056 3.66077,0.12385604 6.01701,1.24005204 3.18779,1.510118 5.77119,4.0416536 7.29859,7.1520601 0.99142,2.018919 1.10963,2.680702 1.10963,6.211776 0,3.524909 -0.11599,4.176944 -1.07302,6.031967 -0.59017,1.143917 -24.99374,34.000854 -54.23016,73.015415 l -53.15714,70.935572 53.15714,70.93557 c 29.23642,39.01456 53.63999,71.87149 54.23016,73.01541 0.95703,1.85502 1.07302,2.50706 1.07302,6.03197 0,3.53107 -0.11821,4.19285 -1.10963,6.21177 -3.29228,6.70442 -11.04461,10.09815 -17.86054,7.81879 z"
   id="path885" /><path
   style="opacity:1;stroke-width:0.395212"
   d="m 216.77378,329.01452 c -1.3042,-0.43615 -3.21909,-1.41894 -4.25531,-2.18398 -1.45366,-1.07324 -15.00306,-18.88345 -59.31527,-77.96787 -38.7914,-51.72317 -57.676913,-77.21392 -58.188188,-78.53963 -1.039374,-2.69504 -1.039374,-7.94903 0,-10.64407 C 95.888304,157.41458 209.62155,5.4825076 211.86045,3.5894398 c 0.74603,-0.6307956 2.33457,-1.6034116 3.53009,-2.161369 1.82024,-0.84952309 2.75199,-1.01596294 5.73057,-1.02366333 3.18893,-0.008244 3.83186,0.12105474 6.21462,1.24981243 3.18779,1.510118 5.77119,4.0416536 7.29859,7.1520601 0.99235,2.020822 1.10963,2.679119 1.10963,6.228288 0,3.5382 -0.11549,4.191229 -1.0648,6.02099 -0.58564,1.128797 -24.98921,33.978305 -54.23016,72.998905 l -53.16536,70.946547 53.16536,70.94654 c 29.24095,39.0206 53.64452,71.87011 54.23016,72.9989 0.94931,1.82977 1.0648,2.48279 1.0648,6.021 0,3.54917 -0.11728,4.20746 -1.10963,6.22828 -3.29228,6.70442 -11.04461,10.09815 -17.86054,7.81879 z"
   id="path887" /><path
   style="opacity:1;stroke-width:0.395212"
   d="m 217.86988,329.44371 c -2.19267,-0.56073 -5.51523,-2.44044 -6.9561,-3.93535 -2.64411,-2.74327 -114.602415,-152.41944 -115.625765,-154.57917 -0.885852,-1.86955 -1.029955,-2.70101 -1.029955,-5.94276 0,-3.40059 0.115922,-3.99957 1.185636,-6.12631 C 96.893569,155.97757 209.62082,5.576904 211.69919,3.7520695 c 0.81489,-0.7154815 2.46788,-1.7593334 3.67331,-2.319671 1.83636,-0.85361642 2.76839,-1.02028641 5.74861,-1.02799103 3.18893,-0.008244 3.83186,0.12105474 6.21462,1.24981243 3.18779,1.510118 5.77119,4.0416536 7.29859,7.1520601 0.99235,2.020822 1.10963,2.679119 1.10963,6.228288 0,3.5382 -0.11549,4.191229 -1.0648,6.02099 -0.58564,1.128797 -24.98922,33.978317 -54.23018,72.998937 l -53.16538,70.946575 53.29842,71.12309 c 29.31413,39.1177 53.71771,71.97462 54.23018,73.01538 0.79061,1.60562 0.93176,2.49102 0.93176,5.84442 0,3.53107 -0.11821,4.19285 -1.10963,6.21177 -2.43543,4.95953 -7.34435,8.23375 -12.67873,8.45664 -1.54579,0.0646 -3.38436,-0.0293 -4.08571,-0.20866 z"
   id="path889" /><path
   style="opacity:1;stroke-width:0.395212"
   d="m 217.60035,329.38582 c -2.21735,-0.5534 -5.46859,-2.51492 -7.0262,-4.239 -3.08077,-3.41005 -114.045346,-151.83727 -115.130454,-153.99954 -1.070294,-2.13276 -1.185636,-2.73068 -1.185636,-6.14627 0,-3.41455 0.11567,-4.01463 1.185636,-6.15097 C 96.889763,155.96277 209.58793,5.6057735 211.68814,3.7617692 c 0.82096,-0.7208164 2.47893,-1.7690331 3.68436,-2.3293707 1.83636,-0.85361642 2.76839,-1.02028641 5.74861,-1.02799103 3.18893,-0.008244 3.83186,0.12105474 6.21462,1.24981243 3.18779,1.510118 5.77119,4.0416536 7.29859,7.1520601 0.99235,2.020822 1.10963,2.679119 1.10963,6.228288 0,3.50379 -0.12049,4.200885 -1.02875,5.951508 -0.56581,1.090582 -24.88617,33.854852 -54.04524,72.809487 -29.15907,38.954637 -53.01649,71.004237 -53.01649,71.221337 0,0.2171 12.75018,17.41996 28.33373,38.22857 67.81538,90.55343 77.77731,103.93805 78.7393,105.79225 0.89538,1.72581 1.01745,2.43723 1.01745,5.92973 0,3.54917 -0.11728,4.20746 -1.10963,6.22828 -2.43512,4.95888 -7.34346,8.23302 -12.67873,8.45741 -1.54579,0.065 -3.50565,-0.0553 -4.35524,-0.26732 z"
   id="path891" /><path
   style="opacity:1;stroke-width:0.395212"
   d="m 217.33867,329.28744 c -2.50597,-0.70819 -5.11165,-2.3111 -6.80651,-4.18711 C 207.95135,322.24369 96.679252,173.55496 95.453017,171.3244 c -1.11592,-2.0299 -1.194957,-2.44814 -1.194957,-6.32339 0,-3.88542 0.07704,-4.29014 1.209588,-6.35418 C 97.170017,155.54429 209.84355,5.3813409 211.67711,3.7714507 c 0.82703,-0.7261412 2.48996,-1.7787146 3.69539,-2.3390522 1.83636,-0.85361642 2.76839,-1.02028641 5.74861,-1.02799103 3.18893,-0.008244 3.83186,0.12105474 6.21462,1.24981243 3.18779,1.510118 5.77119,4.0416536 7.29859,7.1520601 0.99235,2.020822 1.10963,2.679119 1.10963,6.228288 0,3.495213 -0.12155,4.202388 -1.01898,5.92818 -0.893,1.717268 -33.34682,45.31245 -89.80561,120.635782 -9.49624,12.66921 -17.26589,23.20442 -17.26589,23.41157 0,0.20715 8.76888,12.0721 19.48639,26.36657 57.67085,76.91841 86.62827,115.81383 87.5606,117.61085 0.92504,1.78299 1.04349,2.46178 1.04349,5.97993 0,3.54917 -0.11728,4.20746 -1.10963,6.22828 -3.13148,6.37696 -10.75031,9.9414 -17.29565,8.09171 z"
   id="path893" /><path
   style="opacity:1;stroke-width:0.395212"
   d="m 217.33867,329.28744 c -2.5103,-0.70941 -5.11239,-2.31191 -6.8161,-4.19772 -2.58763,-2.8642 -113.840933,-151.52967 -115.069756,-153.76532 -1.115662,-2.02977 -1.194754,-2.44837 -1.194754,-6.32339 0,-3.89055 0.07598,-4.28822 1.216548,-6.36703 C 97.180033,155.52564 209.84124,5.3833719 211.6789,3.7698845 c 0.82604,-0.7252797 2.48817,-1.7771484 3.6936,-2.337486 1.83636,-0.85361642 2.76839,-1.02028641 5.74861,-1.02799103 3.18893,-0.008244 3.83186,0.12105474 6.21462,1.24981243 3.18779,1.510118 5.77119,4.0416536 7.29859,7.1520601 0.99235,2.020822 1.10963,2.679119 1.10963,6.228288 0,3.494519 -0.12167,4.202731 -1.01852,5.92818 -0.93587,1.800534 -26.15207,35.692551 -84.47325,113.536902 -12.42929,16.59003 -22.59871,30.32146 -22.59871,30.51431 0,0.19285 10.96929,14.98553 24.37621,32.87263 57.69227,76.97129 81.71201,109.25294 82.6803,111.11928 0.9142,1.76209 1.03397,2.45265 1.03397,5.96158 0,3.54917 -0.11728,4.20746 -1.10963,6.22828 -3.13148,6.37696 -10.75031,9.9414 -17.29565,8.09171 z"
   id="path895" /><path
   style="opacity:1;stroke-width:0.395212"
   d="m 217.08443,329.25444 c -2.49687,-0.81539 -4.94448,-2.37447 -6.59388,-4.20016 C 207.88699,322.17245 96.695023,173.58046 95.453877,171.3244 c -1.117012,-2.03042 -1.195817,-2.44713 -1.195817,-6.32339 0,-3.89587 0.07487,-4.2862 1.223841,-6.3805 C 97.190352,155.50641 209.83929,5.3850819 211.68106,3.7679875 c 0.82486,-0.7242364 2.48601,-1.7752514 3.69144,-2.335589 1.83636,-0.85361642 2.76839,-1.02028641 5.74861,-1.02799103 3.18893,-0.008244 3.83186,0.12105474 6.21462,1.24981243 3.05158,1.4455968 5.51494,3.7911757 7.22252,6.8771933 1.10437,1.9958598 1.18381,2.4185908 1.18472,6.3042668 7.9e-4,3.709114 -0.11069,4.379563 -1.01938,6.125786 -1.09868,2.111312 -5.10825,7.512325 -65.5625,88.314654 -21.87349,29.2358 -40.17481,53.73646 -40.66959,54.44591 l -0.89962,1.28989 1.89658,2.66223 c 1.04312,1.46422 14.96144,20.09107 30.92961,41.39299 52.891,70.55793 73.27984,97.98801 74.30864,99.97099 0.89515,1.72535 1.01724,2.43703 1.01724,5.92932 0,3.54917 -0.11728,4.20746 -1.10963,6.22828 -2.47349,5.03703 -7.35248,8.24575 -12.89013,8.47735 -1.81155,0.0758 -3.6522,-0.0896 -4.65976,-0.41864 z"
   id="path897" /><path
   style="opacity:1;stroke-width:0.395212"
   d="m 217.08443,329.25444 c -2.51114,-0.82005 -4.94711,-2.37739 -6.6267,-4.23649 -2.6216,-2.90179 -113.750275,-151.41733 -115.003199,-153.69355 -1.117843,-2.03082 -1.196471,-2.44637 -1.196471,-6.32339 0,-3.8986 0.07429,-4.28515 1.227612,-6.38746 C 97.195625,155.49659 209.83845,5.3858162 211.68228,3.7669145 c 0.82419,-0.7236462 2.48479,-1.7764816 3.69022,-2.3396342 1.88117,-0.87884078 2.72366,-1.02279059 5.94622,-1.01598697 3.46327,0.007312 3.9492,0.10863121 6.26438,1.30614037 2.96135,1.5317391 5.62572,4.1405656 7.08765,6.9398992 0.94162,1.8030401 1.05261,2.4485281 1.06234,6.1783471 0.01,3.715535 -0.0989,4.37654 -1.00658,6.125786 -1.20456,2.321446 -1.02049,2.073198 -58.89034,79.422384 -24.88175,33.25709 -45.91536,61.39902 -46.74135,62.53763 l -1.50181,2.0702 0.89898,1.2891 c 0.49445,0.70901 20.92818,28.05484 45.40829,60.76851 58.50887,78.18754 59.63598,79.70688 60.82395,81.99126 0.90787,1.74575 1.01962,2.41767 1.01874,6.12578 -7.9e-4,3.88568 -0.0804,4.30841 -1.18472,6.30427 -2.77436,5.01396 -7.40191,7.97613 -12.81406,8.20248 -1.81155,0.0758 -3.6522,-0.0896 -4.65976,-0.41864 z"
   id="path899" /><path
   style="opacity:1;stroke-width:0.395212"
   d="m 217.08443,329.25444 c -2.52112,-0.82331 -4.94898,-2.37945 -6.65011,-4.26239 C 207.80146,322.07778 96.717655,173.6159 95.455404,171.3244 c -1.118951,-2.03135 -1.197344,-2.44536 -1.197344,-6.32339 0,-3.75676 0.102202,-4.34355 1.079247,-6.19648 C 96.544616,156.51491 208.69853,6.7875992 210.97668,4.4240833 c 0.79737,-0.8272531 2.60202,-2.0721709 4.01033,-2.766484 2.34386,-1.1555468 2.87903,-1.26154598 6.32339,-1.25244654 3.37285,0.00891 4.00637,0.13178929 6.11272,1.18563594 2.86264,1.4322255 5.79092,4.2778707 7.23389,7.0297282 0.97897,1.8669731 1.07558,2.4387421 1.081,6.3975391 0.006,4.10126 -0.0597,4.459182 -1.15344,6.323392 -1.49143,2.541976 2.06355,-2.243764 -53.66882,72.249514 C 154.43869,128.98086 131.61,159.52435 130.18533,161.46537 l -2.59031,3.52913 0.90628,1.28769 c 0.49845,0.70823 23.32803,31.25464 50.7324,67.88092 57.36528,76.6694 53.84652,71.93346 55.35087,74.49746 1.09376,1.86421 1.15905,2.22213 1.15344,6.32339 -0.005,3.94022 -0.10488,4.53588 -1.06235,6.36072 -2.58239,4.92181 -7.52041,8.10209 -12.93147,8.3284 -1.81155,0.0758 -3.6522,-0.0896 -4.65976,-0.41864 z"
   id="path901" /><path
   style="opacity:1;stroke-width:0.395212"
   d="m 216.70038,329.09411 c -2.85134,-1.01825 -4.84482,-2.42566 -6.92322,-4.88784 -1.81282,-2.14758 -38.60341,-51.14617 -87.04568,-115.92955 -14.79091,-19.78036 -27.248262,-36.76 -27.682996,-37.73252 -0.621608,-1.39058 -0.789515,-2.61449 -0.786171,-5.73057 0.0038,-3.5363 0.119125,-4.18101 1.072584,-5.99596 C 96.824856,155.98149 209.78903,5.4292082 211.65927,3.7871201 c 0.83684,-0.7347593 2.5078,-1.798522 3.71323,-2.3639171 1.88927,-0.88613784 2.70979,-1.02603249 5.94622,-1.01379792 3.29102,0.0124409 4.03736,0.15124657 6.04573,1.12440512 2.78374,1.3488634 5.84245,4.3212302 7.29256,7.0867067 0.97897,1.8669731 1.07558,2.4387421 1.081,6.3975391 0.005,4.000242 -0.0794,4.498641 -1.06308,6.242498 -1.01584,1.800888 -8.89503,12.383334 -77.74383,104.416856 -16.09824,21.5193 -29.27112,39.21491 -29.27307,39.3236 -0.002,0.10868 14.43513,19.49383 32.08241,43.0781 65.76014,87.88358 74.2691,99.31443 75.12103,100.91691 0.74735,1.40578 0.87208,2.26286 0.87139,5.98794 -7.9e-4,3.99269 -0.0909,4.51941 -1.10587,6.45677 -2.53355,4.83626 -7.4679,7.9947 -12.8828,8.24619 -2.19683,0.10202 -3.5402,-0.0559 -5.04381,-0.59281 z"
   id="path903" /><path
   style="opacity:1;stroke-width:0.395212"
   d="m 217.08443,329.25444 c -2.44462,-0.79833 -4.93548,-2.36432 -6.47676,-4.0719 -3.5217,-3.9017 -113.428687,-150.76057 -115.145127,-153.85814 -1.128017,-2.03567 -1.204483,-2.43711 -1.204483,-6.32339 0,-3.88037 0.07785,-4.29082 1.199356,-6.32339 C 97.205513,155.50943 208.09746,7.4511625 210.98947,4.4240833 c 0.79033,-0.8272531 2.58985,-2.0721709 3.99892,-2.766484 2.34776,-1.1568542 2.87639,-1.2612008 6.32339,-1.24819422 3.29864,0.0124468 4.04336,0.15079361 6.05267,1.12440512 2.78374,1.3488634 5.84245,4.3212302 7.29256,7.0867067 0.98031,1.8695251 1.07512,2.4333311 1.07585,6.3975391 7.9e-4,3.708224 -0.12577,4.585282 -0.86016,5.965918 -0.47353,0.890223 -10.34914,14.317551 -21.9458,29.838506 -31.27567,41.859309 -84.54607,113.11894 -84.97925,113.67645 -0.43925,0.56532 -2.40881,-2.10254 60.32877,81.71814 24.89206,33.25709 45.75537,61.35666 46.36291,62.4435 1.02411,1.83202 1.10419,2.29293 1.09868,6.32339 -0.005,3.98737 -0.0975,4.52199 -1.11102,6.45677 -2.53966,4.84792 -7.48252,8.00649 -12.8828,8.23235 -1.81155,0.0758 -3.6522,-0.0896 -4.65976,-0.41864 z"
   id="path905" /><path
   style="opacity:1;stroke-width:0.395212"
   d="m 217.08443,329.25444 c -2.45026,-0.80017 -4.9361,-2.3652 -6.4916,-4.08695 C 207.0202,321.21301 97.196429,174.46374 95.46021,171.3244 c -1.125054,-2.03427 -1.20215,-2.43979 -1.20215,-6.32339 0,-3.88418 0.07696,-4.28882 1.202656,-6.32339 C 97.292722,155.36647 207.93652,7.6301366 210.94968,4.4718111 c 0.76419,-0.8010026 2.47615,-2.0455618 3.80437,-2.7656868 2.27557,-1.23375546 2.64302,-1.30936418 6.36706,-1.31011524 3.54535,-7.1534e-4 4.18808,0.11506711 6.24465,1.12491984 2.79388,1.3718969 5.84643,4.3442088 7.29125,7.099588 0.98031,1.8695251 1.07512,2.4333311 1.07585,6.3975391 7.9e-4,3.708362 -0.12576,4.585257 -0.86025,5.966097 -0.85346,1.604492 -6.93183,9.779401 -71.81958,96.591417 -18.44044,24.67111 -33.9386,45.40883 -34.44033,46.08383 l -0.91224,1.22727 1.03742,1.53921 c 0.57058,0.84657 16.60238,22.34713 35.62622,47.77902 61.72836,82.52113 69.60316,93.10855 70.49814,94.78254 0.76096,1.42332 0.88045,2.24458 0.87251,5.99652 -0.008,3.9794 -0.10246,4.52586 -1.11102,6.45677 -2.53006,4.84389 -7.47789,8.00644 -12.87954,8.23235 -1.81155,0.0758 -3.6522,-0.0896 -4.65976,-0.41864 z"
   id="path907" /><path
   style="opacity:1;stroke-width:0.395212"
   d="m 216.70038,329.09411 c -2.84867,-1.0173 -4.84256,-2.42398 -6.92822,-4.88784 C 204.87368,318.41951 97.094419,174.27251 95.461801,171.3244 c -1.127075,-2.03523 -1.203741,-2.43796 -1.203741,-6.32339 0,-3.88379 0.07705,-4.28903 1.20231,-6.32339 1.894017,-3.42421 112.37442,-150.9425767 115.4888,-154.2058089 0.76447,-0.8010026 2.47666,-2.0441171 3.80488,-2.7624763 2.27182,-1.22870406 2.64915,-1.30634531 6.36706,-1.31011532 3.54894,-0.0036 4.18599,0.11083234 6.24465,1.12170942 2.79388,1.3718969 5.84643,4.3442088 7.29125,7.099588 0.98031,1.8695251 1.07512,2.4333311 1.07585,6.3975391 7.9e-4,3.692765 -0.12732,4.588071 -0.8501,5.946214 -0.93746,1.761498 -9.43615,13.198823 -65.76838,88.50945 -20.9741,28.04029 -38.87622,51.98803 -39.7825,53.21721 l -1.64777,2.23485 2.16765,3.02107 c 1.1922,1.66158 19.095,25.64318 39.78401,53.29242 56.42593,75.4089 64.27331,85.96618 65.23086,87.75678 0.75589,1.41349 0.87605,2.24232 0.86812,5.98791 -0.008,3.9794 -0.10246,4.52586 -1.11102,6.45677 -2.52398,4.83224 -7.46326,7.99463 -12.87954,8.24619 -2.19683,0.10202 -3.5402,-0.0559 -5.04381,-0.59281 z"
   id="path909" /><path
   style="opacity:1;stroke-width:0.395212"
   d="m 216.9098,329.27698 c -2.30747,-0.86158 -4.76501,-2.44994 -6.3186,-4.08386 -3.00673,-3.1622 -113.300931,-150.56946 -115.128845,-153.86872 -1.127778,-2.03556 -1.204295,-2.43733 -1.204295,-6.32339 0,-3.88141 0.07761,-4.29028 1.200249,-6.32339 C 97.367803,155.2195 207.80669,7.7560326 210.94669,4.4718111 c 0.76583,-0.8010026 2.47914,-2.0441171 3.80736,-2.7624763 2.27182,-1.22870406 2.64915,-1.30634531 6.36706,-1.31011532 3.54894,-0.0036 4.18599,0.11083234 6.24465,1.12170942 2.79388,1.3718969 5.84643,4.3442088 7.29125,7.099588 0.98031,1.8695251 1.07512,2.4333311 1.07585,6.3975391 7.9e-4,3.688239 -0.12776,4.588875 -0.84721,5.940533 -0.95297,1.790403 -9.12573,12.793204 -62.95924,84.760621 -20.73098,27.71424 -39.16816,52.37975 -40.97151,54.81225 l -3.27882,4.42273 4.45555,6.05039 c 2.45056,3.32771 20.88755,28.0143 40.9711,54.85907 53.6991,71.77719 60.80804,81.34599 61.76932,83.14303 0.74963,1.40136 0.87061,2.23962 0.8627,5.97728 -0.008,3.9794 -0.10246,4.52586 -1.11102,6.45677 -2.57079,4.92186 -7.48925,8.0208 -13.08947,8.24719 -2.02051,0.0817 -3.70634,-0.0681 -4.62446,-0.41094 z"
   id="path911" /><path
   style="opacity:1;stroke-width:0.395212"
   d="m 217.3666,329.45771 c -1.94508,-0.63884 -4.40974,-2.08301 -5.98735,-3.50828 -2.486,-2.24596 -113.635187,-150.51264 -115.915758,-154.62503 -1.129222,-2.03624 -1.205432,-2.43602 -1.205432,-6.32339 0,-3.88657 0.0764,-4.28757 1.204733,-6.32339 C 97.531913,154.94436 207.58179,7.9964713 210.94815,4.4718111 c 0.76503,-0.8010026 2.47768,-2.0441171 3.8059,-2.7624763 2.27182,-1.22870406 2.64915,-1.30634531 6.36706,-1.31011532 3.54894,-0.0036 4.18599,0.11083234 6.24465,1.12170942 2.79388,1.3718969 5.84643,4.3442088 7.29125,7.099588 0.98031,1.8695251 1.07512,2.4333311 1.07585,6.3975391 7.9e-4,3.678927 -0.12865,4.590388 -0.84119,5.92818 -0.99803,1.873789 -8.35687,11.788494 -58.22647,78.44958 -20.7332,27.714244 -40.23724,53.806684 -43.34231,57.983214 l -5.64558,7.59368 6.23291,8.4124 c 3.4281,4.62683 23.19796,31.08769 43.93302,58.80194 50.29991,67.23028 56.02151,74.93787 57.03544,76.83261 0.73991,1.3827 0.8652,2.24681 0.86475,5.9643 -4e-4,4.20104 -0.0461,4.43146 -1.35552,6.84745 -2.57403,4.7494 -7.32267,7.64558 -12.85365,7.83939 -1.7488,0.0613 -3.62425,-0.0346 -4.16766,-0.21309 z"
   id="path913" /><path
   style="opacity:1;stroke-width:0.395212"
   d="m 217.3666,329.45771 c -1.94721,-0.63954 -4.41046,-2.08366 -5.9933,-3.51366 C 208.87742,323.68917 97.736169,175.43323 95.461443,171.3244 c -1.12662,-2.03501 -1.203383,-2.43838 -1.203383,-6.32339 0,-3.88726 0.07624,-4.28722 1.20533,-6.32339 2.132815,-3.84628 112.03975,-150.6068931 115.48254,-154.2058089 0.76625,-0.8010026 2.4799,-2.0441171 3.80812,-2.7624763 2.27182,-1.22870406 2.64915,-1.30634531 6.36706,-1.31011532 3.54894,-0.0036 4.18599,0.11083234 6.24465,1.12170942 2.79388,1.3718969 5.84643,4.3442088 7.29125,7.099588 0.97897,1.8669731 1.07558,2.4387421 1.081,6.3975391 0.005,3.964918 -0.0851,4.50863 -1.0287,6.18099 -1.29819,2.300736 -3.23386,4.909872 -54.64077,73.651832 -52.68142,70.446242 -52.02111,69.554992 -52.01382,70.204872 0.003,0.29594 14.77054,20.27891 32.81606,44.40661 62.02459,82.92975 72.50479,97.02373 73.68754,99.09647 1.11959,1.96205 1.18563,2.31997 1.18563,6.42513 0,4.19445 -0.0472,4.43445 -1.34336,6.82465 -2.61522,4.82277 -7.26815,7.66602 -12.86633,7.86219 -1.7488,0.0613 -3.62425,-0.0346 -4.16766,-0.21309 z"
   id="path915" /><path
   style="opacity:1;stroke-width:0.395212"
   d="m 217.3666,329.43483 c -1.86486,-0.56932 -4.38453,-2.03735 -5.99671,-3.49386 C 208.86147,323.67476 97.761239,175.47008 95.463049,171.3244 c -1.128659,-2.03598 -1.204989,-2.43653 -1.204989,-6.32339 0,-3.88749 0.07618,-4.28709 1.205532,-6.32339 C 97.630281,154.77091 207.44182,8.138797 210.947,4.4718111 c 0.76566,-0.8010026 2.47883,-2.0441171 3.80705,-2.7624763 2.27182,-1.22870406 2.64915,-1.30634531 6.36706,-1.31011532 3.55649,-0.003608 4.18352,0.10961525 6.26367,1.13101262 2.7524,1.3514876 6.16825,4.6922167 7.44199,7.278316 0.79099,1.6059629 0.91718,2.4603169 0.91718,6.2095079 0,4.022482 -0.0824,4.494991 -1.10299,6.323392 -1.14685,2.054644 -6.65756,9.470045 -68.44641,92.103912 -20.48734,27.39892 -37.49047,50.20175 -37.78474,50.67295 -0.48624,0.77859 -0.37584,1.08319 1.21056,3.33979 0.96008,1.36568 15.89377,21.41266 33.18597,44.54885 64.14219,85.81939 70.75757,94.72027 71.83569,96.65362 1.01921,1.82773 1.10192,2.30236 1.10192,6.32339 0,3.97855 -0.0921,4.5221 -1.08609,6.4076 -2.09952,3.98268 -5.21336,6.57262 -9.35995,7.78515 -2.22862,0.65168 -6.217,0.78149 -7.93131,0.25812 z"
   id="path917" /><path
   style="opacity:1;mix-blend-mode:saturation;stroke-width:0.395212"
   d="m 216.9098,329.25361 c -2.25539,-0.80564 -4.74422,-2.40479 -6.31954,-4.06049 -1.54151,-1.62017 -37.16849,-48.92407 -76.00071,-100.91031 -35.32959,-47.29714 -38.368994,-51.41371 -39.392851,-53.35362 -0.81553,-1.5452 -0.938639,-2.32272 -0.938639,-5.92818 0,-3.60684 0.1229,-4.38239 0.939416,-5.92818 C 97.046191,155.57293 207.4141,8.1557101 210.94373,4.4718111 c 0.76746,-0.8010026 2.4821,-2.0459204 3.81032,-2.7664838 2.2765,-1.23500875 2.64151,-1.31011531 6.36706,-1.31011531 3.55202,0 4.18613,0.11490583 6.26367,1.13502011 2.7524,1.3514876 6.16825,4.6922167 7.44199,7.278316 0.79234,1.6086959 0.91648,2.4539349 0.91204,6.2095079 -0.004,3.688731 -0.13437,4.590171 -0.85813,5.95028 -1.08128,2.03196 -3.9806,5.941274 -58.4585,78.822692 -24.778,33.148402 -45.81829,61.311642 -46.7562,62.584972 -1.41711,1.92392 -1.63927,2.4582 -1.31467,3.1617 0.40524,0.87824 12.28985,16.8487 63.1266,84.8291 38.6607,51.69821 42.36652,56.70958 43.37264,58.65265 1.15118,2.22319 1.42786,7.59096 0.54372,10.54829 -1.2834,4.29283 -5.07372,7.99433 -9.67105,9.44443 -2.86482,0.90362 -6.66799,1.00781 -8.81342,0.24144 z"
   id="path919" /><path
   style="opacity:1;stroke-width:0.395212"
   d="m 216.9098,329.25361 c -2.25796,-0.80657 -4.7456,-2.40589 -6.31583,-4.06049 -2.10955,-2.22291 -79.08788,-104.7069 -110.08291,-146.5573 -6.12628,-8.27188 -6.253,-8.54819 -6.253,-13.63481 0,-3.33217 0.153214,-4.45875 0.77767,-5.71821 0.826012,-1.66599 4.723986,-6.95487 37.14686,-50.4019 40.27456,-53.968371 76.72213,-102.1983201 78.86034,-104.353434 3.2935,-3.3195565 5.25307,-4.12213002 10.07818,-4.12769547 3.44782,-0.003977 4.23493,0.12805323 6.16842,1.03469297 2.69618,1.2642784 6.21844,4.6937952 7.50492,7.3073199 0.82808,1.6822616 0.9495,2.4848896 0.9495,6.2762726 0,3.690594 -0.12812,4.586526 -0.84814,5.930699 -1.13746,2.123509 -2.01325,3.304827 -56.30766,75.951309 -26.02288,34.818876 -48.06744,64.374976 -48.98792,65.680216 l -1.67361,2.37317 0.72532,1.11061 c 0.84931,1.30048 22.88575,30.85747 66.38838,89.04528 36.59218,48.94459 38.75,51.86733 39.82797,53.94644 1.13312,2.18546 1.40297,7.57854 0.52598,10.51196 -1.2834,4.29283 -5.07372,7.99433 -9.67105,9.44443 -2.86482,0.90362 -6.66799,1.00781 -8.81342,0.24144 z"
   id="path921" /><path
   style="opacity:1;stroke-width:0.395212"
   d="m 216.9098,329.25361 c -2.25834,-0.8067 -4.74581,-2.40605 -6.31528,-4.06049 -2.12183,-2.23671 -82.37764,-109.09101 -111.263164,-148.13815 -4.878509,-6.59471 -5.073296,-7.06646 -5.073296,-12.28683 0,-4.20219 0.04978,-4.46249 1.209212,-6.3234 1.501913,-2.41058 17.755678,-24.26108 57.888478,-77.821493 45.1385,-60.240926 56.69436,-75.4480286 58.52102,-77.0115794 3.08482,-2.64049361 4.78521,-3.21778328 9.44195,-3.20558902 3.74116,0.009797 4.35362,0.11726059 6.22066,1.09150392 2.64447,1.3799103 6.03477,4.7651305 7.25507,7.2442009 0.82808,1.6822616 0.9495,2.4848896 0.9495,6.2762726 0,3.691838 -0.12791,4.585693 -0.84835,5.92818 -1.16721,2.175027 -2.13964,3.487782 -51.67117,69.754916 -51.11865,68.390508 -55.17574,73.852468 -55.17574,74.281578 0,0.4264 8.19191,11.45426 58.28895,78.46786 49.08401,65.65849 48.62472,65.03053 49.18187,67.24316 0.60427,2.3998 0.52054,6.78819 -0.17288,9.05982 -1.26053,4.12952 -5.11297,7.83591 -9.62341,9.2586 -2.86482,0.90362 -6.66799,1.00781 -8.81342,0.24144 z"
   id="path923" /><path
   style="opacity:1;stroke-width:0.395212"
   d="m 215.14723,328.44125 c -1.49643,-0.74973 -3.45425,-2.12803 -4.3507,-3.06289 -1.98454,-2.06956 -19.33964,-25.04497 -63.37903,-83.90383 -48.365889,-64.64124 -51.286832,-68.58351 -52.269041,-70.54534 -0.763263,-1.52452 -0.890399,-2.40418 -0.890399,-6.16068 0,-4.20111 0.04996,-4.46246 1.208702,-6.32339 C 99.004729,152.76316 207.92421,7.5781516 211.11256,4.294198 c 0.87254,-0.8986902 2.59218,-2.143608 3.82143,-2.7664841 2.04427,-1.03585831 2.58912,-1.13157458 6.38473,-1.12163532 3.74116,0.009797 4.35362,0.11726059 6.22066,1.09150392 2.65047,1.3830379 6.04396,4.7748527 7.23144,7.2278636 0.66682,1.3774479 0.97388,2.8270459 1.09742,5.1807549 0.20685,3.941173 -0.33914,6.341662 -1.99616,8.776255 -1.77398,2.606426 -17.79526,24.124374 -56.82301,76.318148 -47.2016,63.125096 -49.0661,65.654326 -48.83771,66.249496 0.27247,0.71005 9.77937,13.4964 58.73131,78.99091 48.34796,64.68644 48.01863,64.23591 48.57684,66.45274 0.60427,2.3998 0.52054,6.78819 -0.17288,9.05982 -1.78148,5.83616 -7.99054,10.05084 -14.80687,10.05084 -2.25658,0 -3.09455,-0.21183 -5.39253,-1.36316 z"
   id="path925" /><path
   style="opacity:1;stroke-width:0.395212"
   d="m 215.14723,328.44125 c -1.49643,-0.74973 -3.45668,-2.12803 -4.35611,-3.06289 -2.01169,-2.09093 -15.94845,-20.53975 -62.18911,-82.32298 -49.857919,-66.61633 -52.456457,-70.12242 -53.456426,-72.12619 -0.759602,-1.52212 -0.887524,-2.41008 -0.887524,-6.16068 0,-4.2075 0.04855,-4.46033 1.217745,-6.34117 1.618403,-2.60346 12.672915,-17.46932 55.505365,-74.642397 45.23072,-60.374299 58.13969,-77.4393216 60.13139,-79.490745 0.87254,-0.8986902 2.59218,-2.143608 3.82143,-2.7664841 2.04427,-1.03585831 2.58912,-1.13157458 6.38473,-1.12163532 3.74116,0.009797 4.35362,0.11726059 6.22066,1.09150392 2.64579,1.3805979 6.04336,4.7736141 7.22572,7.2160262 1.11224,2.2975923 1.5069,7.1745773 0.82546,10.2007603 -0.57135,2.537325 -0.18219,1.995747 -32.84097,45.702792 -45.73576,61.207879 -72.13043,96.582899 -73.48879,98.492109 l -1.32532,1.86279 2.51485,3.47258 c 3.30637,4.56554 16.57141,22.35644 61.21864,82.10565 43.2224,57.84243 43.29684,57.94452 43.85054,60.14346 0.60427,2.3998 0.52054,6.78819 -0.17288,9.05982 -1.78148,5.83616 -7.99054,10.05084 -14.80687,10.05084 -2.25658,0 -3.09455,-0.21183 -5.39253,-1.36316 z"
   id="path927" /><path
   style="opacity:1;stroke-width:0.395212;fill:#ffffff;fill-opacity:1"
   d="m 215.14723,328.44125 c -1.49643,-0.74973 -3.45557,-2.12803 -4.35363,-3.06289 -3.22061,-3.35254 -111.783781,-148.11929 -115.211028,-153.63153 -1.305268,-2.09934 -1.324512,-2.19733 -1.324512,-6.74446 0,-4.48144 0.03557,-4.67141 1.236414,-6.6041 1.645001,-2.64753 20.336286,-27.76883 61.837546,-83.110385 43.04873,-57.405101 51.78764,-68.9379934 53.84311,-71.0577046 0.90559,-0.9338998 2.62468,-2.1788176 3.82019,-2.766484 1.94991,-0.95849363 2.60085,-1.0673658 6.3234,-1.05761782 3.74116,0.009797 4.35362,0.11726059 6.22066,1.09150392 2.65047,1.3830379 6.04396,4.7748527 7.23144,7.2278636 1.11911,2.3117569 1.51705,7.4636169 0.7973,10.3220059 -0.26802,1.064386 -1.43133,3.243711 -2.6944,5.047638 -2.15653,3.079959 -23.09314,31.171798 -65.69383,88.14512 -29.17006,39.01147 -38.73247,51.8938 -38.94297,52.46337 -0.23534,0.63681 -4.02503,-4.48083 78.06797,105.42382 27.48784,36.80021 28.6848,38.46228 29.21462,40.56635 0.60427,2.3998 0.52054,6.78819 -0.17288,9.05982 -1.78148,5.83616 -7.99054,10.05084 -14.80687,10.05084 -2.25658,0 -3.09455,-0.21183 -5.39253,-1.36316 z"
   id="path929" /></svg>
